<svg id="Group_2762" data-name="Group 2762" xmlns="http://www.w3.org/2000/svg" xmlns:xlink="http://www.w3.org/1999/xlink" width="144.476" height="48.484" viewBox="0 0 144.476 48.484">
  <defs>
    <linearGradient id="linear-gradient" y1="0.5" x2="1" y2="0.5" gradientUnits="objectBoundingBox">
      <stop offset="0" stop-color="#00652e"/>
      <stop offset="1" stop-color="#0db14b"/>
    </linearGradient>
    <linearGradient id="linear-gradient-3" x1="0.294" y1="0.99" x2="0.849" y2="0.229" gradientUnits="objectBoundingBox">
      <stop offset="0" stop-color="#d71920"/>
      <stop offset="0.157" stop-color="#d41920"/>
      <stop offset="0.329" stop-color="#ca171e"/>
      <stop offset="0.506" stop-color="#ba1319"/>
      <stop offset="0.687" stop-color="#a30d11"/>
      <stop offset="0.87" stop-color="#870102"/>
      <stop offset="1" stop-color="#710000"/>
    </linearGradient>
    <linearGradient id="linear-gradient-4" y1="0.5" x2="1" y2="0.5" gradientUnits="objectBoundingBox">
      <stop offset="0.005" stop-color="#d71920"/>
      <stop offset="0.162" stop-color="#d41920"/>
      <stop offset="0.332" stop-color="#ca171e"/>
      <stop offset="0.508" stop-color="#ba1319"/>
      <stop offset="0.689" stop-color="#a30d11"/>
      <stop offset="0.871" stop-color="#870102"/>
      <stop offset="1" stop-color="#710000"/>
    </linearGradient>
  </defs>
  <g id="Group_2758" data-name="Group 2758" transform="translate(85.046 13.525)">
    <path id="Path_12127" data-name="Path 12127" d="M588.661,70.94a2.779,2.779,0,0,0-2.78-2.78H582.23V86.722c0,.014,0,.028,0,.044s0,.03,0,.046a2.779,2.779,0,0,0,2.78,2.78h3.651V71.031c0-.014,0-.028,0-.044S588.661,70.956,588.661,70.94Z" transform="translate(-551.74 -68.16)"/>
    <path id="Path_12128" data-name="Path 12128" d="M477.07,68.17h-.02l.02,18.562c0,.014,0,.028,0,.044s0,.03,0,.046a2.779,2.779,0,0,0,2.78,2.78H483.5V81.312h7.846c.468-.054,1.774-.409,1.774-2.744l0,0V76.49h-.31v0H483.5v-3.5h9.453c.468-.054,1.774-.409,1.774-2.744l0,0V68.17Z" transform="translate(-467.432 -68.168)"/>
    <path id="Path_12129" data-name="Path 12129" d="M650.057,69.857c-.024-.1-.05-.194-.079-.284a.007.007,0,0,0,0,0,2.456,2.456,0,0,0-.28-.583l-.006-.008a1.963,1.963,0,0,0-.258-.312,1.523,1.523,0,0,0-.951-.484.858.858,0,0,0-.089-.012H633.66a2.779,2.779,0,0,0-2.78,2.78c0,.016,0,.03,0,.046s0,.028,0,.044V86.732h0c0,.012,0,.022,0,.034v.01c0,.016,0,.03,0,.046a2.779,2.779,0,0,0,2.78,2.78h14.732a.7.7,0,0,0,.083-.012h0a1.513,1.513,0,0,0,.956-.484h0a1.931,1.931,0,0,0,.256-.31l.006-.008c.026-.04.052-.081.075-.123h0a2.585,2.585,0,0,0,.2-.458s0,0,0-.006q.03-.086.054-.179h0c.01-.034.018-.069.026-.1a3.811,3.811,0,0,0,.113-.943V84.781h-11.8l-.006-.014s-.941.069-1.044-1.224V74.228c.1-1.294,1.044-1.224,1.044-1.224h11.807V70.8A3.623,3.623,0,0,0,650.057,69.857Z" transform="translate(-590.736 -68.168)"/>
    <path id="Path_12130" data-name="Path 12130" d="M435.011,70.94a2.779,2.779,0,0,0-2.78-2.78H428.58V86.722c0,.014,0,.028,0,.044s0,.03,0,.046a2.779,2.779,0,0,0,2.78,2.78h3.651V71.031c0-.014,0-.028,0-.044S435.011,70.956,435.011,70.94Z" transform="translate(-428.58 -68.16)"/>
  </g>
  <g id="Group_2761" data-name="Group 2761">
    <g id="Group_2759" data-name="Group 2759" transform="translate(0 24.227)">
      <path id="Path_12131" data-name="Path 12131" d="M22.838,145.83H0l28.763,19.544,11.414-7.739Z" transform="translate(0 -141.119)" fill="url(#linear-gradient)"/>
      <path id="Path_12132" data-name="Path 12132" d="M188.6,127.472l-7.953-5.382-35.7,24.255,22.828,0,21.078-14.389a3.494,3.494,0,0,0,.925-2.179A2.81,2.81,0,0,0,188.6,127.472Z" transform="translate(-116.187 -122.09)" fill="url(#linear-gradient)"/>
    </g>
    <g id="Group_2760" data-name="Group 2760" transform="translate(0.062)">
      <path id="Path_12133" data-name="Path 12133" d="M37.624,17.425,26.21,9.67.31,27.351l22.767-.02Z" transform="translate(-0.31 -7.751)" fill="url(#linear-gradient-3)"/>
      <path id="Path_12134" data-name="Path 12134" d="M194.646,24.255c.153-6.257-5.542-9.68-6.124-10.013l0,0L167.654.022,144.85,0l35.719,24.225,7.6,5.147.349.236a2.812,2.812,0,0,1,1.177,2.31,3.509,3.509,0,0,1-.9,2.149.366.366,0,0,1-.028.028l.161-.113C190.391,33.044,194.779,29.756,194.646,24.255Z" transform="translate(-116.168)" fill="url(#linear-gradient-4)"/>
    </g>
  </g>
</svg>
