<?xml version="1.0" encoding="utf-8"?>
<!-- Generator: Adobe Illustrator 19.0.0, SVG Export Plug-In . SVG Version: 6.00 Build 0)  -->
<svg version="1.1" id="Layer_1" xmlns="http://www.w3.org/2000/svg" xmlns:xlink="http://www.w3.org/1999/xlink" x="0px" y="0px"
	 viewBox="0 69.4 500 391.6" style="enable-background:new 0 69.4 500 391.6;" xml:space="preserve">
<style type="text/css">
	.st0{fill:#E6E6E6;}
	.st1{fill:#E0E0E0;}
	.st2{fill:#FAFAFA;}
	.st3{fill:#F5F5F5;}
	.st4{fill:#E2FFC5;}
	.st5{fill:#70B32F;}
	.st6{fill:#2B8B30;}
	.st7{fill:#FFFFFF;}
	.st8{fill:#E58A7B;}
	.st9{fill:#EB4D50;}
	.st10{opacity:0.2;fill:#EB4D50;enable-background:new    ;}
	.st11{opacity:0.2;enable-background:new    ;}
	.st12{fill:#E8ECF1;}
	.st13{fill:#263238;}
	.st14{fill:#CF6F64;}
	.st15{fill:url(#Path_12175_1_);}
	.st16{fill:#147119;}
	.st17{fill:url(#Path_12178_1_);}
	.st18{fill:#DF5753;}
	.st19{fill:#407BFF;}
	.st20{fill:none;}
	.st21{fill:#FFF8F9;}
	.st22{opacity:0.56;fill:#EB4D50;enable-background:new    ;}
	.st23{opacity:7.000000e-002;fill:#EB4D50;enable-background:new    ;}
	.st24{opacity:0.47;fill:#EB4D50;enable-background:new    ;}
	.st25{fill:#B61F24;}
	.st26{opacity:0.6;fill:#B61F24;enable-background:new    ;}
	.st27{fill:url(#Path_12238_1_);}
	.st28{opacity:0.4;enable-background:new    ;}
	.st29{fill:url(#Path_12241_1_);}
	.st30{fill:#9A1115;}
	.st31{opacity:0.4;fill:#B61F24;enable-background:new    ;}
	.st32{fill:url(#Rectangle_264_1_);}
	.st33{fill:url(#Path_12264_1_);}
	.st34{opacity:0.38;fill:url(#Ellipse_438_1_);enable-background:new    ;}
	.st35{opacity:0.38;fill:url(#Ellipse_439_1_);enable-background:new    ;}
	.st36{opacity:0.38;fill:url(#Ellipse_447_1_);enable-background:new    ;}
	.st37{opacity:0.38;fill:url(#Ellipse_441_1_);enable-background:new    ;}
	.st38{opacity:0.38;fill:url(#Ellipse_452_1_);enable-background:new    ;}
	.st39{opacity:0.38;fill:url(#Ellipse_449_1_);enable-background:new    ;}
	.st40{opacity:0.38;fill:url(#Ellipse_456_1_);enable-background:new    ;}
	.st41{opacity:0.38;fill:url(#Ellipse_445_1_);enable-background:new    ;}
	.st42{opacity:0.38;fill:url(#Ellipse_455_1_);enable-background:new    ;}
	.st43{opacity:0.38;fill:url(#Ellipse_454_1_);enable-background:new    ;}
	.st44{opacity:0.38;fill:url(#Ellipse_453_1_);enable-background:new    ;}
	.st45{opacity:0.38;fill:url(#Ellipse_442_1_);enable-background:new    ;}
	.st46{opacity:0.38;fill:url(#Ellipse_443_1_);enable-background:new    ;}
	.st47{opacity:0.38;fill:url(#Ellipse_450_1_);enable-background:new    ;}
	.st48{opacity:0.38;fill:url(#Ellipse_451_1_);enable-background:new    ;}
	.st49{opacity:0.38;fill:url(#Ellipse_446_1_);enable-background:new    ;}
	.st50{opacity:0.38;fill:url(#Ellipse_444_1_);enable-background:new    ;}
	.st51{opacity:0.38;fill:url(#Ellipse_440_1_);enable-background:new    ;}
	.st52{opacity:0.38;fill:url(#Ellipse_448_1_);enable-background:new    ;}
</style>
<g id="Group_2807" transform="translate(0 52)">
	<g id="Group_2806">
		<g id="Group_2804" transform="translate(460 399.047)">
			<g id="Background_complete">
				<g id="Group_2784">
					<g id="Group_2774">
						<rect id="Rectangle_237" x="-460" y="-35.2" class="st0" width="500" height="0.3"/>
						<rect id="Rectangle_238" x="-368.3" y="-20.1" class="st0" width="33.1" height="0.3"/>
						<rect id="Rectangle_239" x="-398" y="-20.1" class="st0" width="19.2" height="0.3"/>
						<rect id="Rectangle_240" x="-268.6" y="-16.4" class="st0" width="19.2" height="0.3"/>
						<rect id="Rectangle_241" x="-192.6" y="-10.8" class="st0" width="43.2" height="0.3"/>
						<rect id="Rectangle_242" x="-207.8" y="-10.8" class="st0" width="6.3" height="0.3"/>
						<rect id="Rectangle_243" x="-100.3" y="-16.4" class="st0" width="93.7" height="0.3"/>
						<g id="Group_2773">
							<path id="Path_12127" class="st0" d="M-223-79.8h-193.1c-3.2,0-5.7-2.6-5.7-5.7v-271.4c0-3.2,2.6-5.7,5.7-5.7H-223
								c3.2,0,5.7,2.6,5.7,5.7v271.4C-217.3-82.4-219.8-79.8-223-79.8z M-416.1-362.4c-3,0-5.5,2.4-5.5,5.5v271.4
								c0,3,2.4,5.5,5.5,5.5H-223c3,0,5.5-2.4,5.5-5.5v-271.4c0-3-2.4-5.5-5.5-5.5L-416.1-362.4z"/>
							<path id="Path_12128" class="st0" d="M-6.7-79.8h-193.1c-3.2,0-5.7-2.6-5.7-5.7v-271.4c0-3.2,2.6-5.7,5.7-5.7H-6.7
								c3.2,0,5.7,2.6,5.7,5.7v271.4C-1-82.4-3.5-79.8-6.7-79.8z M-199.8-362.4c-3,0-5.5,2.4-5.5,5.5v271.4c0,3,2.4,5.5,5.5,5.5
								H-6.7c3,0,5.5-2.4,5.5-5.5v-271.4c0-3-2.4-5.5-5.5-5.5H-199.8z"/>
						</g>
					</g>
					<g id="Group_2775">
						<rect id="Rectangle_244" x="-214.6" y="-120.6" class="st1" width="22" height="87.2"/>
						<path id="Path_12129" class="st2" d="M-196.8-33.4h4.2v-11.9h-8.6L-196.8-33.4z"/>
						<rect id="Rectangle_245" x="-310.9" y="-120.6" class="st1" width="22" height="87.2"/>
						<rect id="Rectangle_246" x="-292.6" y="-120.6" class="st2" width="100" height="79.9"/>
						<path id="Path_12130" class="st1" d="M-196.2-116.7v21.2H-289v-21.2H-196.2 M-195.8-117.1h-93.5v21.9h93.5V-117.1
							L-195.8-117.1z"/>
						<path id="Path_12131" class="st2" d="M-288.4-33.4h-4.2v-11.9h8.6L-288.4-33.4z"/>
						<path id="Path_12132" class="st0" d="M-244.8-106.1c0,1.2,1,2.2,2.2,2.2c1.2,0,2.2-1,2.2-2.2c0-1.2-1-2.2-2.2-2.2c0,0,0,0,0,0
							C-243.8-108.3-244.8-107.3-244.8-106.1z"/>
						<path id="Path_12133" class="st1" d="M-196.2-91.2v21.2H-289v-21.2H-196.2 M-195.8-91.6h-93.5v21.9h93.5V-91.6z"/>
						<path id="Path_12134" class="st0" d="M-244.8-80.7c0,1.2,1,2.2,2.2,2.2s2.2-1,2.2-2.2s-1-2.2-2.2-2.2S-244.8-81.9-244.8-80.7
							L-244.8-80.7z"/>
						<path id="Path_12135" class="st1" d="M-196.2-65.8v21.2H-289v-21.2H-196.2 M-195.8-66.2h-93.5v21.9h93.5V-66.2L-195.8-66.2z"
							/>
						<path id="Path_12136" class="st0" d="M-244.8-55.2c0,1.2,1,2.2,2.2,2.2c1.2,0,2.2-1,2.2-2.2c0-1.2-1-2.2-2.2-2.2
							C-243.8-57.4-244.8-56.4-244.8-55.2C-244.8-55.2-244.8-55.2-244.8-55.2z"/>
					</g>
					<g id="Group_2776">
						<rect id="Rectangle_247" x="-324.4" y="-171.3" class="st1" width="22" height="137.9"/>
						<path id="Path_12137" class="st2" d="M-306.6-33.4h4.2v-11.9h-8.6L-306.6-33.4z"/>
						<rect id="Rectangle_248" x="-406.6" y="-171.3" class="st1" width="22" height="137.9"/>
						<rect id="Rectangle_249" x="-388.2" y="-171.3" class="st2" width="85.8" height="130.6"/>
						<path id="Path_12138" class="st1" d="M-306.1-167.6v29.6h-78.4v-29.6H-306.1 M-305.6-168H-385v30.5h79.3V-168z"/>
						<path id="Path_12139" class="st1" d="M-306.1-134.4V-56h-37.4v-78.4H-306.1 M-305.6-134.9h-38.3v79.3h38.3V-134.9
							L-305.6-134.9z"/>
						<path id="Path_12140" class="st1" d="M-347.2-134.4V-56h-37.4v-78.4H-347.2 M-346.7-134.9H-385v79.3h38.3V-134.9L-346.7-134.9
							z"/>
						<path id="Path_12141" class="st2" d="M-384-33.4h-4.2v-11.9h8.6L-384-33.4z"/>
						<path id="Path_12142" class="st0" d="M-347.5-152.8c0,1.2,1,2.2,2.2,2.2c1.2,0,2.2-1,2.2-2.2s-1-2.2-2.2-2.2l0,0
							C-346.5-155-347.5-154-347.5-152.8z"/>
						<path id="Path_12143" class="st0" d="M-339.6-97.1c0,1.2,1,2.2,2.2,2.2s2.2-1,2.2-2.2c0-1.2-1-2.2-2.2-2.2
							C-338.6-99.3-339.6-98.3-339.6-97.1z"/>
						<path id="Path_12144" class="st0" d="M-355.4-97.1c0,1.2,1,2.2,2.2,2.2c1.2,0,2.2-1,2.2-2.2c0-1.2-1-2.2-2.2-2.2c0,0,0,0,0,0
							C-354.4-99.3-355.4-98.3-355.4-97.1z"/>
					</g>
					<path id="Path_12145" class="st1" d="M-357.9-209.7h-9.3c0,0,1.6,8.6,1.6,13.6s-7.1,24.8,3,24.8c10.1,0,3-19.8,3-24.8
						S-357.9-209.7-357.9-209.7z"/>
					<path id="Path_12146" class="st3" d="M-393.2-189.5v6c0,6.7,5.4,12.1,12.1,12.1h6c6.7,0,12.1-5.4,12.1-12.1v-6H-393.2z"/>
					<path id="Path_12147" class="st1" d="M-264.3-133.3c0,7,7.8,12.7,17.4,12.7h8.6c9.6,0,17.4-5.7,17.4-12.7H-264.3z"/>
					<g id="Group_2778">
						<path id="Path_12148" class="st4" d="M-35.4-143.6c-5.2,4.3-12.5,12.1-19.1,23.1c-4.4,7.3-7.1,15-8.2,25.2
							c0-11.5,0.1-23.9,0.1-35.5c1.3-3,4.4-9.9,6.6-15.4c7.3-18.2,10-22.7,16.5-38.4c8.7-21,17.7-45.9,15.1-43.9
							c-5.2,4.1-25.2,41.5-27.4,46.9c-5.9,14.3-9.5,29.4-10.8,44.9c0-11,0.1-21,0.1-28.8c0.1-25.3,0.6-33.5,0.8-36
							c0.8-1.3,1.8-2.8,2.3-3.6c4.7-6.8,6.5-12.6,10.9-22.7c6.3-14.4,11.7-39.8,10.1-38.6c-6.6,5.4-11.8,16.9-18.6,31.5
							s-4.9,23.1-6.2,35.6c-0.3,2.5-0.5,11.7-0.7,24.6c-1.8-13.7-5.1-22.7-11.1-30.9c-7.4-10.1-14.6-16.9-19.9-20.5s9.1,21.2,16,32
							c6.1,9.6,11.8,18.1,15,26.5c-0.2,17.4-0.2,39.5-0.2,60c-1.6-9.3-4.2-19.4-7.6-27.2c-4.1-9.4-10.5-23.7-15.6-28.6
							c-1.2-1.2,5.3,26.8,9.5,34.2s7.2,14.4,9.9,18.6c0.6,1,2.6,4.8,3.8,6.9c0,25.1,0.1,47.2,0.4,54.7h1.1
							c-0.1-1.9-0.1-14.7-0.1-31.6c2.6-9.2,8.6-19.6,13.5-29.2C-43.9-119.9-30.2-147.9-35.4-143.6z"/>
						<g id="Group_2777">
							<path id="Path_12149" class="st5" d="M-47.6-33.4h-31.3l-2.4-30.7h36.1L-47.6-33.4z"/>
							<path id="Path_12150" class="st6" d="M-42.9-60.5h-40.7l-1.2-10.4h43.1L-42.9-60.5z"/>
						</g>
					</g>
					<g id="Group_2779">
						<rect id="Rectangle_250" x="-391.8" y="-342.1" class="st1" width="56.1" height="61.5"/>
						<rect id="Rectangle_251" x="-387.6" y="-342.1" class="st3" width="57.9" height="61.5"/>
						<rect id="Rectangle_252" x="-382.7" y="-337.3" class="st7" width="48.2" height="51.8"/>
						<rect id="Rectangle_253" x="-371" y="-324.7" class="st3" width="24.8" height="26.7"/>
					</g>
					<g id="Group_2781">
						<g id="Group_2780">
							<rect id="Rectangle_254" x="-102" y="-334.9" class="st1" width="52.1" height="57.2"/>
							<rect id="Rectangle_255" x="-98.1" y="-334.9" class="st3" width="53.8" height="57.2"/>
							<rect id="Rectangle_256" x="-93.6" y="-330.4" class="st7" width="44.8" height="48.2"/>
						</g>
						<circle id="Ellipse_432" class="st3" cx="-71.2" cy="-306.3" r="14"/>
					</g>
					<g id="Group_2783">
						<g id="Group_2782">
							<rect id="Rectangle_257" x="-319.1" y="-305.4" class="st1" width="41.6" height="45.7"/>
							<rect id="Rectangle_258" x="-316" y="-305.4" class="st3" width="43" height="45.7"/>
							<rect id="Rectangle_259" x="-312.4" y="-301.8" class="st7" width="35.8" height="38.5"/>
							<path id="Path_12151" class="st3" d="M-294.5-292.3l-9.8,16.9h19.6L-294.5-292.3z"/>
						</g>
					</g>
				</g>
			</g>
			<g id="Shadow">
				<ellipse id="Ellipse_433" class="st3" cx="-210" cy="-1.4" rx="193.9" ry="11.3"/>
			</g>
			<g id="Character_2">
				<g id="Group_2789">
					<path id="Path_12152" class="st8" d="M-110.8-254.2l-9.9-4c0,0-13.1,23.9-16.8,25.1c-5.1,1.6-15.7,6.2-21.9,7.1
						c-0.8,1-2.2,4.1-2.1,5.2c8.4,2.8,26.9-0.9,30.8-3.9C-121.7-231.4-110.8-254.2-110.8-254.2z"/>
					<g id="Group_2785">
						<path id="Path_12153" class="st9" d="M-107.7-259.6c1.8,6.8-8.2,20.6-8.2,20.6l-13.2-7.4c0,0,2.5-5.6,5.5-11.4
							C-118.7-267.1-109.8-267.4-107.7-259.6z"/>
						<path id="Path_12154" class="st10" d="M-107.7-259.6c1.8,6.8-8.2,20.6-8.2,20.6l-13.2-7.4c0,0,2.5-5.6,5.5-11.4
							C-118.7-267.1-109.8-267.4-107.7-259.6z"/>
					</g>
					<path id="Path_12155" class="st11" d="M-123.8-243.5l5.2,2.9l0.9-15.9C-120.7-254.1-122.8-247.2-123.8-243.5z"/>
					<g id="Group_2786">
						<path id="Path_12156" class="st9" d="M-116.3-264.7c0,0-10.2,22.7-4.3,65.1h40.3c0.6-6.2-1.5-36.3,6.2-65.5
							c-4.4-0.9-8.9-1.4-13.4-1.7c-5.7-0.3-11.4-0.3-17.1,0C-108.6-266.4-112.5-265.7-116.3-264.7z"/>
						<path id="Path_12157" class="st10" d="M-116.3-264.7c0,0-10.2,22.7-4.3,65.1h40.3c0.6-6.2-1.5-36.3,6.2-65.5
							c-4.4-0.9-8.9-1.4-13.4-1.7c-5.7-0.3-11.4-0.3-17.1,0C-108.6-266.4-112.5-265.7-116.3-264.7z"/>
					</g>
					<path id="Path_12158" class="st12" d="M-125.7-0.5c-0.1,1.1,15.2,1.9,34.1,1.9s34.3-0.9,34.3-1.9s-15.2-1.9-34.1-1.9
						S-125.6-1.5-125.7-0.5z"/>
					
						<rect id="Rectangle_260" x="-102.2" y="-26.6" transform="matrix(-0.9331 0.3596 -0.3596 -0.9331 -196.6117 0.3658)" class="st8" width="7.7" height="17.1"/>
					<path id="Path_12159" class="st8" d="M-66.9-8.2h-7.5l-2.8-17.4h7.5L-66.9-8.2z"/>
					<path id="Path_12160" class="st13" d="M-75-9h8.5c0.3,0,0.6,0.2,0.6,0.5l1.1,6.7c0.1,0.6-0.4,1.2-1,1.3c-0.1,0-0.1,0-0.2,0
						c-3-0.1-4.4-0.2-8.1-0.2c-2.3,0-7,0.2-10.2,0.2c-3.1,0-3.4-3.1-2.1-3.4c5.9-1.3,8.2-3,10.1-4.7C-75.9-8.9-75.4-9-75-9z"/>
					<path id="Path_12161" class="st13" d="M-100-11.7l8-2.3c0.3-0.1,0.6,0,0.7,0.3l3,6c0.3,0.6,0,1.3-0.6,1.5
						c-0.1,0-0.1,0.1-0.2,0.1c-2.9,0.8-4.9,1.3-8.5,2.3c-2.5,0.7-5.1,1.9-7.6,2.7c-1.7,0.5-5.8,0.6-7.8,0.6c-3.1,0-3.8-3.3-2.5-3.4
						c3.4-0.4,3.8-0.2,5.7-1.1c3-1.3,5.8-3.2,8.1-5.6C-101.2-11.1-100.7-11.5-100-11.7z"/>
					<path id="Path_12162" class="st8" d="M-158.2-226.1l-8.3-3.5l-3.4,9.2c3.4,0.5,6.8,0.5,10.2,0L-158.2-226.1z"/>
					<path id="Path_12163" class="st8" d="M-172.6-229.9l-0.2,6.1l3,3.3l3.4-9.2L-172.6-229.9z"/>
					<g id="Group_2787">
						
							<rect id="Rectangle_261" x="-103.7" y="-26.4" transform="matrix(-0.9329 0.3601 -0.3601 -0.9329 -200.8672 -6.5035)" class="st14" width="7.7" height="8.8"/>
						<path id="Path_12164" class="st14" d="M-69.7-25.6h-7.5l1.4,9h7.5L-69.7-25.6z"/>
					</g>
					<path id="Path_12165" class="st11" d="M-121.9-211.1c0.1,1.8,0.3,3.7,0.5,5.6l29.9-9.7c4.7-1.4,8.7-4.3,11.5-8.4
						c0.1-2.7,0.3-5.5,0.5-8.4c0.1-1.4,0.2-2.9,0.4-4.4c0.1-1.5,0.3-3.1,0.5-4.7L-121.9-211.1z"/>
					<path id="Path_12166" class="st7" d="M-112.1-243.9l-1-0.1c0.6-5,4.3-8.9,8.3-8.8l0,1C-108.3-252-111.6-248.4-112.1-243.9z"/>
					<path id="Path_12167" class="st7" d="M-106.8-234.7h-0.2l0-1c3.4,0.1,6.7-3.5,7.2-7.9l1,0.1
						C-99.3-238.6-102.9-234.7-106.8-234.7z"/>
					<path id="Path_12168" class="st8" d="M-88.1-286.1c-1.4,5.5-3.1,15.6,0.6,19.3c0,0-2.5,5.6-12.8,5.6c-9.4,0-4.3-5.6-4.3-5.6
						c6.2-1.5,6.3-6,5.5-10.3L-88.1-286.1z"/>
					<path id="Path_12169" class="st14" d="M-92.6-282.4l-6.5,5.3c0.2,1,0.3,2,0.4,3c1.9,1.9,5.7-2.9,6.1-5.4
						C-92.4-280.5-92.4-281.5-92.6-282.4z"/>
					<path id="Path_12170" class="st14" d="M-110.3-286.2c0.9,1.6,2.5,2.7,4.2,3.1c2.4,0.5,3.6-1.7,2.9-3.9c-0.6-2-2.6-4.7-5-4.2
						c-1.8,0.4-3,2.1-2.6,3.9C-110.7-286.9-110.5-286.5-110.3-286.2z"/>
					<path id="Path_12171" class="st13" d="M-106.4-303.8c-3.7,1.7-5.1,16.6-0.4,18.8C-102-282.8-99.3-307.1-106.4-303.8z"/>
					<path id="Path_12172" class="st8" d="M-86.9-294.4c-0.9,7.5-1,11.8-5,15.7c-3.7,3.8-9.8,3.9-13.6,0.2c-1.5-1.4-2.4-3.3-2.8-5.3
						c-1.2-6.7,0.5-17.8,7.9-20.7c4.9-2.2,10.6,0,12.7,4.9C-86.9-298-86.7-296.2-86.9-294.4z"/>
					<path id="Path_12173" class="st13" d="M-99.2-299.9c5.5-1.4,9.6-2.4,8.1,2.2c-1.9,6.2-4.3,12.1-1.1,12.4
						c1.9,0.2,10.3-3.4,9.2-7c-0.9-3.1,3-4,3.7-5.6c2.6-5.8-4.8-5-3.5-8.5c1.3-3.4-6-9.1-10-6.3c-6.5,4.5-5.9,9,0,1.5
						c4.2-5.3-12.5-1.9-12.5-1.9s-0.6-1.2-8.2,2.9C-121.6-305.8-111.7-296.8-99.2-299.9z"/>
					<path id="Path_12174" class="st8" d="M-84.1-286.2c-1.1,1.6-2.7,2.7-4.6,3.1c-2.5,0.5-3.4-1.7-2.5-3.9c0.8-2,3.1-4.7,5.5-4.2
						C-83.4-290.7-82.7-288.1-84.1-286.2z"/>
					
						<linearGradient id="Path_12175_1_" gradientUnits="userSpaceOnUse" x1="-459.5" y1="50.0995" x2="-459.5" y2="49.0995" gradientTransform="matrix(34.9284 0 0 -181.851 15939.1846 8910.9834)">
						<stop  offset="0" style="stop-color:#00672E"/>
						<stop  offset="1" style="stop-color:#2B8B30"/>
					</linearGradient>
					<path id="Path_12175" class="st15" d="M-120.6-199.7c0,0-6.8,60.5-7.3,83.5c-0.5,23.9,22.9,98.4,22.9,98.4l12-5
						c0,0-14-68.1-12-91.5c2.1-25.6,10.9-85.3,10.9-85.3H-120.6z"/>
					<path id="Path_12176" class="st11" d="M-103.8-183.1c-5.4,11.2-1.8,33.3,1.2,46.4c1.1-9.2,2.4-19.3,3.7-28.6
						C-99.1-179.5-100.2-190.6-103.8-183.1z"/>
					<path id="Path_12177" class="st16" d="M-93.5-26.8c0.1,0,1.4,3.8,1.4,3.8l-13.8,5.8l-2.2-4.1L-93.5-26.8z"/>
					
						<linearGradient id="Path_12178_1_" gradientUnits="userSpaceOnUse" x1="-459.5" y1="50.0989" x2="-459.5" y2="49.0989" gradientTransform="matrix(40.885 0 0 -181.334 18700.791 8884.9668)">
						<stop  offset="0" style="stop-color:#045729"/>
						<stop  offset="1" style="stop-color:#2B8B30"/>
					</linearGradient>
					<path id="Path_12178" class="st17" d="M-106.3-199.7c0,0,5.2,57.5,8.6,79.1C-94-97-79.2-18.3-79.2-18.3h13.8
						c0,0-8.3-76.7-9.8-100.1c-1.7-25.4-5.1-81.2-5.1-81.2L-106.3-199.7z"/>
					<path id="Path_12179" class="st16" d="M-65.2-21.9c0.1,0,0.5,3.9,0.5,3.9h-15.2l-1.1-4.4L-65.2-21.9z"/>
					<path id="Path_12180" class="st11" d="M-70.5-26.5c-0.1,0-0.1,0-0.1-0.1c-0.1-0.7-7.5-70-8.9-91c-1.5-22.8-4.6-73.3-4.6-73.8
						c0-0.1,0.1-0.1,0.1-0.1h0c0.1,0,0.1,0.1,0.1,0.1c0,0.5,3.1,51,4.6,73.8c1.4,21,8.9,90.3,8.9,91C-70.4-26.6-70.4-26.5-70.5-26.5
						C-70.5-26.5-70.5-26.5-70.5-26.5L-70.5-26.5z"/>
					<path id="Path_12181" class="st13" d="M-98.4-292.3c0,0.6-0.4,1.1-0.8,1.1s-0.7-0.5-0.7-1.1s0.4-1.1,0.8-1.1
						S-98.3-292.9-98.4-292.3z"/>
					<path id="Path_12182" class="st13" d="M-105.2-292.3c0,0.6-0.4,1.1-0.8,1.1s-0.7-0.5-0.7-1.1s0.4-1.1,0.8-1.1
						S-105.2-292.9-105.2-292.3z"/>
					<path id="Path_12183" class="st18" d="M-103.1-292c-0.8,1.9-1.9,3.6-3.2,5.2c0.8,0.6,1.9,0.8,2.9,0.5L-103.1-292z"/>
					<path id="Path_12184" class="st13" d="M-102.9-283.7c-0.1,0-0.2-0.1-0.2-0.2c0,0,0,0,0,0c0-0.1,0.1-0.2,0.2-0.2
						c1.6,0,3-0.7,4-1.9c0.1-0.1,0.2-0.1,0.3-0.1c0.1,0.1,0.1,0.2,0,0.2c0,0,0,0,0,0C-99.6-284.5-101.2-283.7-102.9-283.7z"/>
					<path id="Path_12185" class="st13" d="M-97.2-294.2c-0.1,0-0.2,0-0.3,0c-0.8-0.5-1.7-0.6-2.5-0.3c-0.2,0.1-0.4,0-0.5-0.2
						c0,0,0,0,0,0c-0.1-0.2,0-0.4,0.2-0.5c1.1-0.4,2.3-0.3,3.2,0.3c0.2,0.1,0.2,0.3,0.1,0.5c0,0,0,0,0,0
						C-97-294.2-97.1-294.2-97.2-294.2z"/>
					<path id="Path_12186" class="st13" d="M-107.9-296.2c-0.1,0-0.1,0-0.1-0.1c-0.1-0.1-0.1-0.4,0-0.5c0.8-0.9,1.9-1.3,3.1-1.2
						c0.2,0,0.3,0.2,0.3,0.4c0,0,0,0,0,0c0,0.2-0.2,0.3-0.4,0.3l0,0c-0.9-0.1-1.8,0.3-2.4,1C-107.6-296.2-107.8-296.1-107.9-296.2z"
						/>
					<path id="Path_12187" class="st8" d="M-70.3-255.3l-10.4-2.8c0,0-10.2,25.1-13.8,26.7c-4.9,2.2-17.3,9.9-22.6,13.7
						c-0.3,1.2-0.1,4.6,0.6,5.5c9-1.6,26.2-8.3,29.8-11.6C-78.4-231.5-70.3-255.3-70.3-255.3z"/>
					<path id="Path_12188" class="st19" d="M-77.5-7.7c-0.5,0-1-0.1-1.4-0.4c-0.3-0.2-0.4-0.6-0.3-0.9c0-0.2,0.1-0.4,0.3-0.5
						c0.8-0.4,3.2,1.1,3.5,1.2c0.1,0,0.1,0.1,0.1,0.2c0,0.1-0.1,0.1-0.1,0.1C-76.2-7.8-76.9-7.7-77.5-7.7z M-78.6-9.3
						c-0.1,0-0.2,0-0.2,0c-0.1,0-0.1,0.1-0.1,0.2c-0.1,0.2,0,0.5,0.2,0.6C-78.3-8-77.3-8-76-8.2C-76.8-8.7-77.7-9.1-78.6-9.3
						L-78.6-9.3z"/>
					<path id="Path_12189" class="st19" d="M-75.6-8C-75.6-8-75.6-8-75.6-8c-0.8-0.4-2.2-2.1-2-2.9c0.1-0.3,0.3-0.5,0.6-0.5
						c0.3,0,0.5,0,0.7,0.2c0.8,0.7,0.9,2.9,0.9,3c0,0.1,0,0.1-0.1,0.2C-75.5-8-75.5-8-75.6-8z M-76.9-11C-77-11-77-11-76.9-11
						c-0.3,0-0.3,0.1-0.4,0.2c-0.1,0.5,0.8,1.7,1.5,2.3c0-0.8-0.3-1.7-0.8-2.4C-76.6-11-76.8-11-76.9-11z"/>
					<path id="Path_12190" class="st19" d="M-104.1-9c-0.6,0.2-1.3,0.2-1.9,0c-0.3-0.2-0.5-0.4-0.5-0.8c0-0.2,0-0.4,0.2-0.5
						c0.8-0.7,4.1,0.1,4.4,0.1c0.1,0,0.1,0.1,0.1,0.2c0,0.1,0,0.1-0.1,0.2C-102.5-9.4-103.3-9.2-104.1-9z M-105.7-10.1
						c-0.1,0-0.2,0.1-0.3,0.1c-0.1,0.1-0.1,0.1-0.1,0.2c0,0.2,0.1,0.4,0.3,0.5c0.5,0.3,1.8,0.1,3.4-0.6
						C-103.5-10.2-104.6-10.2-105.7-10.1L-105.7-10.1z"/>
					<path id="Path_12191" class="st19" d="M-101.8-9.8C-101.9-9.8-101.9-9.8-101.8-9.8c-1-0.2-3.1-1.3-3.1-2.2
						c0-0.2,0.1-0.5,0.6-0.6c0.3-0.1,0.7-0.1,1,0.1c1.1,0.5,1.7,2.5,1.7,2.5C-101.7-9.9-101.7-9.9-101.8-9.8
						C-101.8-9.8-101.8-9.8-101.8-9.8z M-104.2-12.3c0,0-0.1,0-0.1,0c-0.3,0.1-0.3,0.2-0.3,0.3c0,0.5,1.5,1.5,2.5,1.8
						c-0.2-0.8-0.7-1.5-1.4-2C-103.7-12.3-104-12.4-104.2-12.3L-104.2-12.3z"/>
					<path id="Path_12192" class="st8" d="M-116.2-218.2l-10.4,4.8l-1.2,2.9l3.9,2.6c0,0,7.2-0.8,9.2-5.4L-116.2-218.2z"/>
					<path id="Path_12193" class="st13" d="M-115.8-212c-0.2-2-0.9-3.9-1.9-5.7l1.6-1.2c1.2,2,2,4.2,2.3,6.6L-115.8-212z"/>
					<path id="Path_12194" class="st13" d="M-114-216.8c0.6,0.9,0.3,2.2-0.6,2.8s-2.2,0.3-2.8-0.6c-0.6-0.9-0.3-2.2,0.6-2.8
						c0.1-0.1,0.2-0.1,0.3-0.2C-115.5-218-114.5-217.7-114-216.8z"/>
					<path id="Path_12195" class="st8" d="M-133.7-209.6l1.4,1.4l9.4-4l-3.7-1.3L-133.7-209.6z"/>
					<path id="Path_12196" class="st20" d="M-93.5-26.8c0.1,0,1.4,3.8,1.4,3.8l-13.8,5.8l-2.2-4.1L-93.5-26.8z"/>
					<path id="Path_12197" class="st20" d="M-65.2-21.9c0.1,0,0.5,3.9,0.5,3.9h-15.2l-1.1-4.4L-65.2-21.9z"/>
					<g id="Group_2788">
						<path id="Path_12198" class="st9" d="M-67.6-258.2c2.8,8.9-8,21-8,21l-14.8-6.1c1.8-5.1,3.8-10.2,6.1-15.1
							C-79.8-268.1-70.3-267.1-67.6-258.2z"/>
						<path id="Path_12199" class="st10" d="M-67.6-258.2c2.8,8.9-8,21-8,21l-14.8-6.1c1.8-5.1,3.8-10.2,6.1-15.1
							C-79.8-268.1-70.3-267.1-67.6-258.2z"/>
					</g>
				</g>
			</g>
			<g id="Screen">
				<g id="Group_2791">
					<rect id="Rectangle_262" x="-221.5" y="-347" class="st19" width="6.4" height="1"/>
					
						<rect id="Rectangle_263" x="-140.9" y="-298.2" transform="matrix(-4.499688e-002 0.999 -0.999 -4.499688e-002 -435.5941 -178.9269)" class="st19" width="17.2" height="1"/>
					<path id="Path_12200" class="st21" d="M-134.4-342.4h-118l-11,245.7h118L-134.4-342.4z"/>
					<path id="Path_12201" class="st22" d="M-137.9-339h-118l-11,245.7h118L-137.9-339z"/>
					<path id="Path_12202" class="st23" d="M-141.4-335.7h-118l-11,245.7h118L-141.4-335.7z"/>
					<path id="Path_12203" class="st7" d="M-154.9-228.5h-100.7l-0.8,18.8h100.7L-154.9-228.5z"/>
					<path id="Path_12204" class="st5" d="M-200.2-242.2H-255l-0.4,8.4h54.8L-200.2-242.2z"/>
					<path id="Path_12205" class="st7" d="M-157.1-177.8h-100.7l-0.8,18.8H-158L-157.1-177.8z"/>
					<path id="Path_12206" class="st24" d="M-175.6-133.6h-67.7l-1,22.5h67.7L-175.6-133.6z"/>
					<path id="Path_12207" class="st7" d="M-180.1-107.5h-67.7c0,0-0.1,0-0.1,0c0,0,0-0.1,0-0.1l1-22.5c0-0.1,0.1-0.1,0.1-0.1h67.7
						c0,0,0.1,0,0.1,0c0,0,0,0.1,0,0.1l-1,22.5C-180-107.6-180.1-107.5-180.1-107.5z M-247.7-107.8h67.5l1-22.3h-67.5L-247.7-107.8z
						"/>
					<path id="Path_12208" class="st5" d="M-212-191.5h-45.2l-0.4,8.4h45.2L-212-191.5z"/>
					<path id="Path_12209" class="st7" d="M-176.9-289.2c-0.3,5.5-2.2,10.7-5.6,15.1c-5.1,6.6-12.9,10.5-21.2,10.6
						c-13.4,0.1-24.4-10.7-24.5-24.1c0-0.5,0-1,0-1.5c0.8-14.3,12.5-25.5,26.8-25.6c13.4-0.1,24.4,10.6,24.5,24.1
						C-176.9-290.3-176.9-289.7-176.9-289.2z"/>
					<path id="Path_12210" class="st5" d="M-174.5-309.5c-0.1,1.5-0.6,2.9-1.5,4c-1.3,1.8-3.4,2.8-5.6,2.8c-3.6,0-6.5-2.8-6.5-6.4
						c0-0.1,0-0.3,0-0.4c0.2-3.8,3.3-6.8,7.1-6.8c3.6,0,6.5,2.8,6.5,6.4C-174.5-309.8-174.5-309.6-174.5-309.5z"/>
					<path id="Path_12211" class="st13" d="M-244.7-219.1c-0.1,1.7-1.5,3-3.1,3c-1.6,0-2.9-1.3-2.9-2.8c0-0.1,0-0.1,0-0.2
						c0.1-1.7,1.5-3,3.1-3c1.6,0,2.9,1.3,2.9,2.8C-244.7-219.2-244.7-219.2-244.7-219.1z"/>
					<path id="Path_12212" class="st13" d="M-231.2-219.1c-0.1,1.7-1.5,3-3.1,3c-1.6,0-2.9-1.3-2.9-2.8c0-0.1,0-0.1,0-0.2
						c0.1-1.7,1.5-3,3.1-3c1.6,0,2.9,1.3,2.9,2.8C-231.2-219.2-231.2-219.2-231.2-219.1z"/>
					<path id="Path_12213" class="st13" d="M-217.8-219.1c-0.1,1.7-1.5,3-3.1,3c-1.6,0-2.9-1.3-2.9-2.8c0-0.1,0-0.1,0-0.2
						c0.1-1.7,1.5-3,3.1-3c1.6,0,2.9,1.3,2.9,2.8C-217.8-219.2-217.8-219.2-217.8-219.1z"/>
					<path id="Path_12214" class="st13" d="M-247-168.4c-0.1,1.7-1.5,3-3.1,3c-1.6,0-2.9-1.3-2.9-2.8c0-0.1,0-0.1,0-0.2
						c0.1-1.7,1.5-3,3.1-3c1.6,0,2.9,1.3,2.9,2.8C-247-168.5-247-168.4-247-168.4z"/>
					<path id="Path_12215" class="st13" d="M-233.5-168.4c-0.1,1.7-1.5,3-3.1,3c-1.6,0-2.9-1.3-2.9-2.8c0-0.1,0-0.1,0-0.2
						c0.1-1.7,1.5-3,3.1-3c1.6,0,2.9,1.3,2.9,2.8C-233.5-168.5-233.5-168.4-233.5-168.4z"/>
					<path id="Path_12216" class="st13" d="M-220-168.4c-0.1,1.7-1.5,3-3.1,3c-1.6,0-2.9-1.3-2.9-2.8c0-0.1,0-0.1,0-0.2
						c0.1-1.7,1.5-3,3.1-3c1.6,0,2.9,1.3,2.9,2.8C-220-168.5-220-168.4-220-168.4z"/>
					<path id="Path_12217" class="st13" d="M-206.5-168.4c-0.1,1.7-1.5,3-3.1,3c-1.6,0-2.9-1.3-2.9-2.8c0-0.1,0-0.1,0-0.2
						c0.1-1.7,1.5-3,3.1-3c1.6,0,2.9,1.3,2.9,2.8C-206.5-168.5-206.5-168.4-206.5-168.4z"/>
					<path id="Path_12218" class="st13" d="M-193.1-168.4c-0.1,1.7-1.5,3-3.1,3c-1.6,0-2.9-1.3-2.9-2.8c0-0.1,0-0.1,0-0.2
						c0.1-1.7,1.5-3,3.1-3c1.6,0,2.9,1.3,2.9,2.8C-193-168.5-193.1-168.4-193.1-168.4z"/>
					<g id="Group_2790">
						<path id="Path_12266" class="st5" d="M-209.2-305c4-4.1,10.6-4.2,14.7-0.2c3.9,4.2,3.7,10.7-0.5,14.7
							c-4,4.1-10.6,4.2-14.7,0.2C-213.6-294.6-213.4-301.1-209.2-305z"/>
						<path id="Path_12219" class="st5" d="M-182.5-274.2c-5.1,6.6-12.9,10.5-21.2,10.6c-8.1,0.1-15.7-3.9-20.2-10.6
							c4.9-4.8,12.6-8,21.1-8S-186.9-279-182.5-274.2z"/>
						<path id="Path_12265" class="st20" d="M-209.2-305c4-4.1,10.6-4.2,14.7-0.2c3.9,4.2,3.7,10.7-0.5,14.7
							c-4,4.1-10.6,4.2-14.7,0.2C-213.6-294.6-213.4-301.1-209.2-305z"/>
						<path id="Path_12220" class="st20" d="M-182.5-274.2c-5.1,6.6-12.9,10.5-21.2,10.6c-8.1,0.1-15.7-3.9-20.2-10.6
							c4.9-4.8,12.6-8,21.1-8S-186.9-279-182.5-274.2z"/>
					</g>
				</g>
			</g>
			<g id="Character_1">
				<g id="Group_2803">
					<g id="Group_2798">
						<path id="Path_12221" class="st8" d="M-329.6-205.2c-0.9,2.1-1.9,4.4-2.8,6.6c-0.9,2.3-1.8,4.5-2.5,6.8
							c-1.6,4.5-2.8,9.1-3.6,13.8l-0.2,1.5c0,0.3,0,0.5,0.1,0.7c0.2,0.8,0.6,1.6,1.1,2.3c1.3,1.8,2.8,3.5,4.4,5
							c1.8,1.6,3.6,3.2,5.5,4.6c1.9,1.5,3.9,2.9,5.9,4.3l-1.9,3.5c-4.8-2.1-9.3-4.6-13.5-7.7c-2.2-1.6-4.3-3.5-6-5.7
							c-1-1.3-1.8-2.7-2.4-4.3c-0.3-1-0.5-1.9-0.5-2.9c0-0.2,0-0.6,0-0.8l0-0.5l0.1-1c0.6-5.2,1.7-10.3,3.3-15.3
							c0.8-2.5,1.6-4.9,2.6-7.3c1-2.4,1.9-4.7,3.1-7.2L-329.6-205.2z"/>
						<path id="Path_12222" class="st8" d="M-323.1-160.2l7.1-3.6l-1.8,7.8c0,0-4.9,1.4-7.1-1L-323.1-160.2z"/>
						<path id="Path_12223" class="st8" d="M-309.5-162.5l-1.9,6.4l-6.4,0.1l1.8-7.8L-309.5-162.5z"/>
						<path id="Path_12224" class="st18" d="M-299.6-242.6c0.4,1.4,0.9,2.7,1.6,4c-0.4,0.4-1,0.6-1.6,0.5V-242.6z"/>
						<ellipse id="Ellipse_436" class="st13" cx="-299.8" cy="-243.7" rx="0.7" ry="1.1"/>
						<path id="Path_12225" class="st13" d="M-300-244.8l1.5-0.4C-298.4-245.2-299.2-244.1-300-244.8z"/>
						<path id="Path_12226" class="st8" d="M-319.1-235.3c0.9,4.7,1.8,13.2-1.4,16.3c0,0,1.3,4.7,9.9,4.7c9.5,0,4.5-4.7,4.5-4.7
							c-5.2-1.2-5.1-5.1-4.2-8.7L-319.1-235.3z"/>
						<path id="Path_12227" class="st8" d="M-321.6-245.9c0.5,7.8,0.5,11.1,4.4,15.1c5.9,6,15.3,3.7,17.2-4c1.7-7,0.6-18.5-7-21.6
							c-5.4-2.2-11.6,0.3-13.9,5.8C-321.5-249.2-321.7-247.5-321.6-245.9z"/>
						<path id="Path_12229" class="st8" d="M-304.4-241.8c0,1.5,0.4,2.9,1.2,4.2c1.1,1.6,2.3,1,2.6-0.7c0.3-1.5,0.1-4.2-1.3-5.2
							C-303.1-244.6-304.3-243.6-304.4-241.8z"/>
						<path id="Path_12230" class="st13" d="M-324.2-253.3c-1.1-3.1,4.2-8,15.5-6c11.3,2,11.8,11.4,11.8,11.4l-2.3-2.7l0.1,2.9
							l-11.6,2.2L-324.2-253.3z"/>
						<g id="Group_2792">
							<path id="Path_12231" class="st25" d="M-323.3-218.5L-323.3-218.5c-0.2-1,0.5-1.9,1.4-2c0,0,0,0,0,0
								c3.5-0.6,11.5-1.8,15.5-1.2c3,0.4,3.8,2.2,3.9,3.6c0.1,1-0.6,1.8-1.6,1.9c-0.1,0-0.1,0-0.2,0l-17.4-0.8
								C-322.5-217-323.2-217.6-323.3-218.5z"/>
							<path id="Path_12232" class="st26" d="M-323.3-218.5L-323.3-218.5c-0.2-1,0.5-1.9,1.4-2c0,0,0,0,0,0
								c3.5-0.6,11.5-1.8,15.5-1.2c3,0.4,3.8,2.2,3.9,3.6c0.1,1-0.6,1.8-1.6,1.9c-0.1,0-0.1,0-0.2,0l-17.4-0.8
								C-322.5-217-323.2-217.6-323.3-218.5z"/>
						</g>
						<path id="Path_12233" class="st8" d="M-313.2-43.7l6.4,4.5l10.8-14.6l-6.4-4.5L-313.2-43.7z"/>
						<path id="Path_12234" class="st8" d="M-328.3-44l6.8,3.9l9.6-15.5l-6.8-3.9L-328.3-44z"/>
						<g id="Group_2793">
							<path id="Path_12235" class="st14" d="M-296-53.9l-5.6,7.5l-6.4-4.5l5.6-7.5L-296-53.9z"/>
							<path id="Path_12236" class="st14" d="M-318.7-59.5l6.8,3.9l-4.9,8l-6.8-3.9L-318.7-59.5z"/>
						</g>
						<g id="Group_2794">
							<path id="Path_12237" class="st19" d="M-307.8-169.6c0,0,25.2,31.7,20.5,62.1c-3.8,24.5-25.9,57.7-25.9,57.7l-10.4-5.2
								c7.3-14.7,13.6-29.9,18.7-45.4c3.2-9.8,1.7-20.5-4-29.1c-12.8-18.6-33.2-7.5-19.4-40.1L-307.8-169.6z"/>
							
								<linearGradient id="Path_12238_1_" gradientUnits="userSpaceOnUse" x1="-459.5" y1="49.9884" x2="-459.5" y2="48.9884" gradientTransform="matrix(46.2366 0 0 -119.788 20935.8496 5818.3882)">
								<stop  offset="0" style="stop-color:#70B32F"/>
								<stop  offset="1" style="stop-color:#2B8B30"/>
							</linearGradient>
							<path id="Path_12238" class="st27" d="M-307.8-169.6c0,0,25.2,31.7,20.5,62.1c-3.8,24.5-25.9,57.7-25.9,57.7l-10.4-5.2
								c7.3-14.7,13.6-29.9,18.7-45.4c3.2-9.8,1.7-20.5-4-29.1c-12.8-18.6-33.2-7.5-19.4-40.1L-307.8-169.6z"/>
						</g>
						<path id="Path_12239" class="st28" d="M-295.5-149.2l-3.7-3.6c0,0.3,7.1,44.1,9.1,56.4c1.2-3.6,2.1-7.3,2.7-11
							C-285-122.4-289.9-137.6-295.5-149.2z"/>
						<g id="Group_2795">
							<path id="Path_12240" class="st19" d="M-296.6-169.6c0,0,30.3,39.9,31.2,63.8c0.7,20-33,58.7-33,58.7l-9.8-6.3
								c0,0,19.7-27.5,24.7-50c-1.9-22.3-42.5-66.2-42.5-66.2L-296.6-169.6z"/>
							
								<linearGradient id="Path_12241_1_" gradientUnits="userSpaceOnUse" x1="-459.7475" y1="49.6853" x2="-459.1055" y2="48.9673" gradientTransform="matrix(60.6822 0 0 -122.541 27587.7461 5956.9058)">
								<stop  offset="0" style="stop-color:#70B32F"/>
								<stop  offset="1" style="stop-color:#2B8B30"/>
							</linearGradient>
							<path id="Path_12241" class="st29" d="M-296.6-169.6c0,0,30.3,39.9,31.2,63.8c0.7,20-33,58.7-33,58.7l-14-3.4
								c0,0,12-30.8,17-53.3c-1.9-22.3-30.6-65.9-30.6-65.9L-296.6-169.6z"/>
						</g>
						<path id="Path_12242" class="st9" d="M-334.1-217.2c-3.2,0.8-6.3,12.6-6.3,12.6l12.7,8.5c0,0,4.2-9.3,2.7-13.4
							C-326.5-213.8-330-218.2-334.1-217.2z"/>
						<path id="Path_12243" class="st11" d="M-331.6-209.6l-0.9,10.3l4.7,3.2c1.3-2.9,2.3-6,2.9-9.1L-331.6-209.6z"/>
						<path id="Path_12244" class="st9" d="M-292.8-217c0,0,3.7,1.3-3.7,47.4h-31.9c0.5-13,0.5-21-5.6-47.6c4.5-0.9,9-1.5,13.5-1.8
							c4.8-0.3,9.7-0.3,14.5,0C-299.9-218.4-292.8-217-292.8-217z"/>
						<path id="Path_12245" class="st8" d="M-289.6-209.7c0.7,2,1.5,4.2,2.3,6.2c0.8,2.1,1.6,4.2,2.4,6.3l2.5,6.3l0.6,1.6l0.3,0.8
							l0.2,0.4c0,0.1,0,0.1,0,0.1c-0.2-0.3-0.4-0.5-0.7-0.6c-0.4-0.2-0.8-0.4-1.3-0.4c-0.4,0-0.8,0.1-1.1,0.2
							c-0.5,0.2-0.5,0.3-0.4,0.3c0.1-0.1,0.2-0.1,0.2-0.2c0.5-0.7,1-1.5,1.4-2.3c0.5-0.9,0.9-1.9,1.4-2.9c0.9-2,1.7-4.1,2.5-6.2
							c0.8-2.1,1.6-4.2,2.3-6.3l2.3-6.4l3.9,1c-0.8,4.6-1.7,9-2.9,13.5c-0.6,2.2-1.2,4.5-2,6.7c-0.4,1.1-0.8,2.3-1.3,3.4
							c-0.5,1.3-1.1,2.5-1.9,3.6c-0.3,0.4-0.6,0.7-0.9,1.1c-0.5,0.5-1.1,1-1.8,1.3c-0.6,0.3-1.3,0.4-1.9,0.4c-0.7,0-1.5-0.3-2.1-0.6
							c-0.8-0.5-1.4-1.1-1.8-1.9c-0.2-0.3-0.3-0.5-0.4-0.7l-0.2-0.4l-0.4-0.8l-0.8-1.6c-1-2.1-2-4.2-2.9-6.3
							c-0.9-2.1-1.8-4.3-2.7-6.4c-0.8-2.2-1.6-4.3-2.4-6.6L-289.6-209.7z"/>
						<path id="Path_12246" class="st19" d="M-292.8-217c3.8,0.9,8.1,12.2,8.1,12.2l-11.4,9.7c0,0-7.4-12.3-5.9-16.4
							C-300.4-215.7-297.8-218.2-292.8-217z"/>
						<path id="Path_12247" class="st8" d="M-273-216.4l4-3.3l2.8,4.3l-2,3.6c0,0-3.3,3-6.1,1.5l0,0
							C-275.4-212.5-274.8-214.9-273-216.4z"/>
						<path id="Path_12248" class="st8" d="M-261.8-219.8l-0.3,1.1l-6.3,1.1l-0.6-2.2L-261.8-219.8z"/>
						<path id="Path_12228" class="st13" d="M-320.9-254.7c-3.9,1.4-9.1,0.4-7.1,12.4c1.3,7.4,1.6,15,1,22.6c0,0,1.7,25.5,10.4,25.6
							c4.3,0,4.3-17.4,9.7-18.5c0,0,3-20.9,4.3-26.8c1.6-7.5,0.3-10.3,0.3-10.3S-315.4-256.7-320.9-254.7z"/>
						<path id="Path_12249" class="st5" d="M-297.6-46.6l-11.4-7.4l2-3.6l12.8,7.9L-297.6-46.6z"/>
						<path id="Path_12250" class="st13" d="M-317-40.7c-1-0.1-2-0.4-2.8-1c-0.1,0-0.1-0.1-0.1-0.2c0-0.1,0.1-0.1,0.1-0.2
							c0.3-0.1,3-0.9,3.8-0.3c0.2,0.1,0.3,0.4,0.2,0.6c0,0.4-0.2,0.7-0.6,0.9C-316.6-40.7-316.8-40.7-317-40.7z M-319.3-41.8
							c1.2,0.6,2.2,0.9,2.7,0.6c0.2-0.1,0.4-0.3,0.4-0.6c0-0.1,0-0.2-0.1-0.3C-316.7-42.3-318.2-42.1-319.3-41.8L-319.3-41.8z"/>
						<path id="Path_12251" class="st13" d="M-319.8-41.6c-0.1,0-0.2-0.1-0.2-0.2c0,0,0,0,0-0.1c0-0.1,0.6-2.3,1.7-2.8
							c0.3-0.1,0.6-0.1,0.8,0c0.3,0.1,0.5,0.4,0.5,0.7C-317-43.1-318.9-41.8-319.8-41.6C-319.7-41.6-319.7-41.6-319.8-41.6z
							 M-317.8-44.4c-0.1,0-0.2,0-0.3,0.1c-0.6,0.3-1.1,1.5-1.4,2.2c0.9-0.4,2.1-1.4,2.1-1.9c0-0.1,0-0.2-0.2-0.3
							C-317.7-44.3-317.7-44.4-317.8-44.4z"/>
						<path id="Path_12252" class="st13" d="M-302.7-36.4c-1.1,0-2.7-1.4-3.6-2.3c-0.1-0.1-0.1-0.1,0-0.2c0-0.1,0.1-0.1,0.2-0.1
							c0.4,0.1,3.9,0.5,4.4,1.5c0.1,0.2,0.1,0.4,0,0.6c-0.2,0.3-0.5,0.5-0.8,0.6C-302.6-36.4-302.7-36.4-302.7-36.4z M-305.6-38.6
							c1.3,1.2,2.4,1.9,3,1.8c0.2,0,0.4-0.2,0.5-0.4c0-0.1,0.1-0.2,0-0.2C-302.4-37.9-304.2-38.3-305.6-38.6L-305.6-38.6z"/>
						<path id="Path_12253" class="st13" d="M-305.5-38.6c-0.2,0-0.4,0-0.7,0c-0.1,0-0.2-0.1-0.1-0.2c0,0,0-0.1,0-0.1
							c0.1-0.1,1.4-1.7,2.7-1.8c0.4,0,0.7,0.1,1,0.3c0.4,0.3,0.4,0.6,0.3,0.8C-302.6-38.9-304.4-38.6-305.5-38.6z M-305.8-39
							c1.1,0.1,2.9-0.3,3.1-0.8c0,0,0.1-0.2-0.2-0.4c-0.2-0.2-0.5-0.3-0.8-0.2C-304.4-40.2-305.2-39.7-305.8-39z"/>
						<path id="Path_12254" class="st25" d="M-319.5-42.7l-8.5-2.4c-0.3-0.1-0.6,0.1-0.7,0.3l-2.9,6.4c-0.3,0.6,0.1,1.4,0.7,1.6
							c0,0,0.1,0,0.1,0c3,0.8,4.4,1,8.2,2.1c2.3,0.6,5.6,1.8,8.7,2.7c3.1,0.9,4.2-2.2,3-2.8c-5.6-2.9-6-5-7.5-7.2
							C-318.6-42.3-319-42.6-319.5-42.7z"/>
						<path id="Path_12255" class="st30" d="M-306.1-39.9l-7.2-5c-0.3-0.2-0.6-0.1-0.8,0.1l-4.8,5.2c-0.5,0.5-0.4,1.3,0.1,1.8
							c0,0,0.1,0.1,0.1,0.1c2.6,1.7,3.9,2.4,7.1,4.6c2,1.4,5.9,4.4,8.6,6.3c2.6,1.8,4.7-0.7,3.7-1.7c-4.3-4.6-5.2-7.5-6-10.1
							C-305.4-39.2-305.7-39.6-306.1-39.9z"/>
						<path id="Path_12256" class="st5" d="M-311.9-49.2l-13.1-6.5l1.4-3.5l13.9,6.8L-311.9-49.2z"/>
						<g id="Group_2796">
							<path id="Path_12257" class="st25" d="M-328.9-171.5l-1.1,2.9c-0.1,0.2,0.2,0.4,0.5,0.4h33.1c0.3,0,0.5-0.1,0.5-0.3l0.3-2.9
								c0-0.2-0.2-0.4-0.5-0.4h-32.3C-328.6-171.7-328.8-171.7-328.9-171.5z"/>
							<path id="Path_12258" class="st31" d="M-328.9-171.5l-1.1,2.9c-0.1,0.2,0.2,0.4,0.5,0.4h33.1c0.3,0,0.5-0.1,0.5-0.3l0.3-2.9
								c0-0.2-0.2-0.4-0.5-0.4h-32.3C-328.6-171.7-328.8-171.7-328.9-171.5z"/>
						</g>
						<g id="Group_2797">
							<path id="Path_12259" class="st19" d="M-323.7-167.9h-0.9c-0.2,0-0.3-0.1-0.3-0.2l0.4-3.7c0-0.1,0.2-0.2,0.3-0.2h0.9
								c0.2,0,0.3,0.1,0.3,0.2l-0.4,3.7C-323.4-168-323.5-167.9-323.7-167.9z"/>
							<path id="Path_12260" class="st19" d="M-303.3-167.9h-0.9c-0.2,0-0.3-0.1-0.3-0.2l0.4-3.7c0-0.1,0.2-0.2,0.3-0.2h0.9
								c0.2,0,0.3,0.1,0.3,0.2l-0.4,3.7C-303-168-303.1-167.9-303.3-167.9z"/>
						</g>
					</g>
					<g id="Group_2802">
						<g id="Group_2799">
							<ellipse id="Ellipse_437" class="st3" cx="-324.5" cy="-0.5" rx="26.8" ry="1.9"/>
							<path id="Path_12261" class="st1" d="M-308.1-3.2c-4.7-1.4-10-3.1-13.2-5c-0.1-0.1-0.2-0.1-0.3-0.1v-21.4h9.5
								c1.6,0,2.9-1.3,2.9-2.9s-1.3-2.9-2.9-2.9h-9.5v-97.8h-5.7v97.8h-9.5c-1.6,0-2.9,1.3-2.9,2.9s1.3,2.9,2.9,2.9h9.5v21.4
								c-0.1,0-0.2,0.1-0.3,0.1c-3.2,1.9-8.4,3.7-13.2,5c-0.7,0.2-1.2,1-0.9,1.7c0.2,0.6,0.7,1,1.3,1h31.8c0.8,0,1.4-0.6,1.4-1.4
								C-307.1-2.5-307.5-3-308.1-3.2z"/>
						</g>
						<g id="Group_2801">
							
								<linearGradient id="Rectangle_264_1_" gradientUnits="userSpaceOnUse" x1="-459.5" y1="48.4509" x2="-459.5" y2="47.4509" gradientTransform="matrix(45.925 0 0 -20.933 20778.0938 870.9289)">
								<stop  offset="0" style="stop-color:#00672E"/>
								<stop  offset="1" style="stop-color:#2B8B30"/>
							</linearGradient>
							<path id="Rectangle_264" class="st32" d="M-342.2-143.3h35.6c2.9,0,5.2,2.3,5.2,5.2v10.6c0,2.9-2.3,5.2-5.2,5.2h-35.6
								c-2.9,0-5.2-2.3-5.2-5.2v-10.6C-347.4-141-345.1-143.3-342.2-143.3z"/>
							<g id="Group_2800">
								<path id="Path_12262" class="st5" d="M-342.6-122.4v1.8c0,1.5,1.6,2.7,3.6,2.7h29c2,0,3.6-1.2,3.6-2.7v-1.8H-342.6z"/>
								<path id="Path_12263" class="st20" d="M-342.6-122.4v1.8c0,1.5,1.6,2.7,3.6,2.7h29c2,0,3.6-1.2,3.6-2.7v-1.8H-342.6z"/>
							</g>
						</g>
					</g>
				</g>
			</g>
		</g>
		
			<linearGradient id="Path_12264_1_" gradientUnits="userSpaceOnUse" x1="0.5" y1="448.8316" x2="0.5" y2="447.8316" gradientTransform="matrix(48.5723 0 0 -73.666 127.1719 33244.2578)">
			<stop  offset="0" style="stop-color:#70B32F"/>
			<stop  offset="1" style="stop-color:#2B8B30"/>
		</linearGradient>
		<path id="Path_12264" class="st33" d="M157.3,180.6l-30.1,62l30.9,11.7l7-26.6h-1.3l3.4-24.3v-1.8l8.6-7.6l-6.5-11.1l-8.1-2.3
			H157.3z"/>
	</g>
	
		<linearGradient id="Ellipse_438_1_" gradientUnits="userSpaceOnUse" x1="0.5" y1="439.611" x2="0.5" y2="438.611" gradientTransform="matrix(4 0 0 -4 166 2083.8359)">
		<stop  offset="0" style="stop-color:#70B32F"/>
		<stop  offset="1" style="stop-color:#E2FFC5"/>
	</linearGradient>
	<circle id="Ellipse_438" class="st34" cx="168" cy="327.4" r="2"/>
	
		<linearGradient id="Ellipse_439_1_" gradientUnits="userSpaceOnUse" x1="0.5" y1="439.611" x2="0.5" y2="438.611" gradientTransform="matrix(4 0 0 -4 174 2071.8359)">
		<stop  offset="0" style="stop-color:#70B32F"/>
		<stop  offset="1" style="stop-color:#E2FFC5"/>
	</linearGradient>
	<circle id="Ellipse_439" class="st35" cx="176" cy="315.4" r="2"/>
	
		<linearGradient id="Ellipse_447_1_" gradientUnits="userSpaceOnUse" x1="0.5" y1="439.611" x2="0.5" y2="438.611" gradientTransform="matrix(4 0 0 -4 149 2081.8359)">
		<stop  offset="0" style="stop-color:#70B32F"/>
		<stop  offset="1" style="stop-color:#E2FFC5"/>
	</linearGradient>
	<circle id="Ellipse_447" class="st36" cx="151" cy="325.4" r="2"/>
	
		<linearGradient id="Ellipse_441_1_" gradientUnits="userSpaceOnUse" x1="0.5" y1="439.611" x2="0.5" y2="438.611" gradientTransform="matrix(4 0 0 -4 167 2056.8359)">
		<stop  offset="0" style="stop-color:#70B32F"/>
		<stop  offset="1" style="stop-color:#E2FFC5"/>
	</linearGradient>
	<circle id="Ellipse_441" class="st37" cx="169" cy="300.4" r="2"/>
	
		<linearGradient id="Ellipse_452_1_" gradientUnits="userSpaceOnUse" x1="0.5" y1="439.611" x2="0.5" y2="438.611" gradientTransform="matrix(4 0 0 -4 149 1982.8359)">
		<stop  offset="0" style="stop-color:#70B32F"/>
		<stop  offset="1" style="stop-color:#E2FFC5"/>
	</linearGradient>
	<circle id="Ellipse_452" class="st38" cx="151" cy="226.4" r="2"/>
	
		<linearGradient id="Ellipse_449_1_" gradientUnits="userSpaceOnUse" x1="0.5" y1="439.611" x2="0.5" y2="438.611" gradientTransform="matrix(4 0 0 -4 158 2045.8359)">
		<stop  offset="0" style="stop-color:#70B32F"/>
		<stop  offset="1" style="stop-color:#E2FFC5"/>
	</linearGradient>
	<circle id="Ellipse_449" class="st39" cx="160" cy="289.4" r="2"/>
	
		<linearGradient id="Ellipse_456_1_" gradientUnits="userSpaceOnUse" x1="0.5" y1="439.611" x2="0.5" y2="438.611" gradientTransform="matrix(4 0 0 -4 147 1969.8359)">
		<stop  offset="0" style="stop-color:#70B32F"/>
		<stop  offset="1" style="stop-color:#E2FFC5"/>
	</linearGradient>
	<circle id="Ellipse_456" class="st40" cx="149" cy="213.4" r="2"/>
	
		<linearGradient id="Ellipse_445_1_" gradientUnits="userSpaceOnUse" x1="0.5" y1="439.611" x2="0.5" y2="438.611" gradientTransform="matrix(4 0 0 -4 176 2035.8359)">
		<stop  offset="0" style="stop-color:#70B32F"/>
		<stop  offset="1" style="stop-color:#E2FFC5"/>
	</linearGradient>
	<circle id="Ellipse_445" class="st41" cx="178" cy="279.4" r="2"/>
	
		<linearGradient id="Ellipse_455_1_" gradientUnits="userSpaceOnUse" x1="0.5" y1="439.611" x2="0.5" y2="438.611" gradientTransform="matrix(4 0 0 -4 161 1941.8359)">
		<stop  offset="0" style="stop-color:#70B32F"/>
		<stop  offset="1" style="stop-color:#E2FFC5"/>
	</linearGradient>
	<circle id="Ellipse_455" class="st42" cx="163" cy="185.4" r="2"/>
	
		<linearGradient id="Ellipse_454_1_" gradientUnits="userSpaceOnUse" x1="0.5" y1="439.611" x2="0.5" y2="438.611" gradientTransform="matrix(4 0 0 -4 156 1958.8359)">
		<stop  offset="0" style="stop-color:#70B32F"/>
		<stop  offset="1" style="stop-color:#E2FFC5"/>
	</linearGradient>
	<circle id="Ellipse_454" class="st43" cx="158" cy="202.4" r="2"/>
	
		<linearGradient id="Ellipse_453_1_" gradientUnits="userSpaceOnUse" x1="0.5" y1="439.611" x2="0.5" y2="438.611" gradientTransform="matrix(4 0 0 -4 161 1964.8359)">
		<stop  offset="0" style="stop-color:#70B32F"/>
		<stop  offset="1" style="stop-color:#E2FFC5"/>
	</linearGradient>
	<circle id="Ellipse_453" class="st44" cx="163" cy="208.4" r="2"/>
	
		<linearGradient id="Ellipse_442_1_" gradientUnits="userSpaceOnUse" x1="0.5" y1="444.486" x2="0.5" y2="443.486" gradientTransform="matrix(8 0 0 -8 180 3846.28)">
		<stop  offset="0" style="stop-color:#70B32F"/>
		<stop  offset="1" style="stop-color:#E2FFC5"/>
	</linearGradient>
	<circle id="Ellipse_442" class="st45" cx="184" cy="294.4" r="4"/>
	
		<linearGradient id="Ellipse_443_1_" gradientUnits="userSpaceOnUse" x1="0.5" y1="444.486" x2="0.5" y2="443.486" gradientTransform="matrix(8 0 0 -8 160 3820.28)">
		<stop  offset="0" style="stop-color:#70B32F"/>
		<stop  offset="1" style="stop-color:#E2FFC5"/>
	</linearGradient>
	<circle id="Ellipse_443" class="st46" cx="164" cy="268.4" r="4"/>
	
		<linearGradient id="Ellipse_450_1_" gradientUnits="userSpaceOnUse" x1="0.5" y1="444.486" x2="0.5" y2="443.486" gradientTransform="matrix(8 0 0 -8 136 3789.28)">
		<stop  offset="0" style="stop-color:#70B32F"/>
		<stop  offset="1" style="stop-color:#E2FFC5"/>
	</linearGradient>
	<circle id="Ellipse_450" class="st47" cx="140" cy="237.4" r="4"/>
	
		<linearGradient id="Ellipse_451_1_" gradientUnits="userSpaceOnUse" x1="0.5" y1="444.486" x2="0.5" y2="443.486" gradientTransform="matrix(8 0 0 -8 149 3793.28)">
		<stop  offset="0" style="stop-color:#70B32F"/>
		<stop  offset="1" style="stop-color:#E2FFC5"/>
	</linearGradient>
	<circle id="Ellipse_451" class="st48" cx="153" cy="241.4" r="4"/>
	
		<linearGradient id="Ellipse_446_1_" gradientUnits="userSpaceOnUse" x1="0.5" y1="444.486" x2="0.5" y2="443.486" gradientTransform="matrix(8 0 0 -8 165 3836.28)">
		<stop  offset="0" style="stop-color:#70B32F"/>
		<stop  offset="1" style="stop-color:#E2FFC5"/>
	</linearGradient>
	<circle id="Ellipse_446" class="st49" cx="169" cy="284.4" r="4"/>
	
		<linearGradient id="Ellipse_444_1_" gradientUnits="userSpaceOnUse" x1="0.5" y1="444.486" x2="0.5" y2="443.486" gradientTransform="matrix(8 0 0 -8 170 3809.28)">
		<stop  offset="0" style="stop-color:#70B32F"/>
		<stop  offset="1" style="stop-color:#E2FFC5"/>
	</linearGradient>
	<circle id="Ellipse_444" class="st50" cx="174" cy="257.4" r="4"/>
	
		<linearGradient id="Ellipse_440_1_" gradientUnits="userSpaceOnUse" x1="0.5" y1="439.611" x2="0.5" y2="438.611" gradientTransform="matrix(4 0 0 -4 164 2073.8359)">
		<stop  offset="0" style="stop-color:#70B32F"/>
		<stop  offset="1" style="stop-color:#E2FFC5"/>
	</linearGradient>
	<circle id="Ellipse_440" class="st51" cx="166" cy="317.4" r="2"/>
	
		<linearGradient id="Ellipse_448_1_" gradientUnits="userSpaceOnUse" x1="0.5" y1="439.611" x2="0.5" y2="438.611" gradientTransform="matrix(4 0 0 -4 155 2064.8359)">
		<stop  offset="0" style="stop-color:#70B32F"/>
		<stop  offset="1" style="stop-color:#E2FFC5"/>
	</linearGradient>
	<circle id="Ellipse_448" class="st52" cx="157" cy="308.4" r="2"/>
</g>
</svg>
